<svg width="608" height="351" viewBox="0 0 608 351" fill="none" xmlns="http://www.w3.org/2000/svg">
  <rect width="608" height="351" fill="#F5F3EE"/>
  <rect x="24" y="24" width="560" height="303" rx="18" fill="#FCFBF8" stroke="#131313" stroke-width="2"/>
  <path d="M72 83H536" stroke="#131313" stroke-opacity="0.16" stroke-width="2"/>
  <path d="M72 268H536" stroke="#131313" stroke-opacity="0.16" stroke-width="2"/>
  <circle cx="92" cy="54" r="7" fill="#131313"/>
  <circle cx="116" cy="54" r="7" fill="#131313" fill-opacity="0.55"/>
  <circle cx="140" cy="54" r="7" fill="#131313" fill-opacity="0.25"/>
  <rect x="72" y="110" width="128" height="28" rx="14" fill="#131313"/>
  <text x="136" y="129" text-anchor="middle" fill="#FCFBF8" font-family="SFMono-Regular, Menlo, Monaco, Consolas, Liberation Mono, monospace" font-size="12" letter-spacing="1.6">KASPA BLOCKDAG</text>
  <text x="72" y="196" fill="#131313" font-family="Inter, Arial, sans-serif" font-size="86" font-weight="700" letter-spacing="-3.2">iidx</text>
  <text x="72" y="236" fill="#131313" fill-opacity="0.82" font-family="Inter, Arial, sans-serif" font-size="26" font-weight="500" letter-spacing="-0.6">igra indexer</text>
  <text x="72" y="295" fill="#131313" fill-opacity="0.72" font-family="Inter, Arial, sans-serif" font-size="19">Explorer, analytics, and investigator data plane for Igra Network.</text>
  <text x="72" y="319" fill="#131313" fill-opacity="0.72" font-family="Inter, Arial, sans-serif" font-size="19">PostgreSQL + ClickHouse for EVM and reth-based chains.</text>
  <rect x="404" y="118" width="132" height="116" rx="18" fill="#131313"/>
  <path d="M444 151H497" stroke="#FCFBF8" stroke-width="8" stroke-linecap="round"/>
  <path d="M444 177H490" stroke="#FCFBF8" stroke-opacity="0.82" stroke-width="8" stroke-linecap="round"/>
  <path d="M444 203H478" stroke="#FCFBF8" stroke-opacity="0.64" stroke-width="8" stroke-linecap="round"/>
  <rect x="423" y="255" width="94" height="24" rx="12" fill="#131313" fill-opacity="0.08" stroke="#131313" stroke-opacity="0.16"/>
  <text x="470" y="272" text-anchor="middle" fill="#131313" font-family="SFMono-Regular, Menlo, Monaco, Consolas, Liberation Mono, monospace" font-size="11" letter-spacing="1.2">IGRA / RPC / SQL</text>
</svg>
